<svg xmlns="http://www.w3.org/2000/svg" xmlns:xlink="http://www.w3.org/1999/xlink" viewBox="-10 -10 260 130" width="520" height="260" role="img" aria-label="A sheet is read line by line and casals up builds the canisters it declares">
  <style>
    svg { color: #3a3a3a; fill: #fff; stroke: currentColor; stroke-width: 1; stroke-linecap: square; stroke-linejoin: miter; }
    * { transform-box: fill-box; transform-origin: 50% 50%; }
    text { fill: #8a8a8a; stroke: none; font-family: ui-monospace, SFMono-Regular, Menlo, Monaco, Consolas, "Liberation Mono", monospace; font-size: 6.5px; letter-spacing: .06em; text-transform: uppercase; text-anchor: middle; }
    .art-start { text-anchor: start; }
    .bg { fill: #fff; stroke: #e5e5e5; }
    .art-dim { fill: none; stroke-opacity: .4; }
    .art-frame { fill: none; stroke-opacity: .28; stroke-dasharray: 2 3; }
    .s-line { fill: currentColor; stroke: none; opacity: .15; animation: s-read 9s infinite both; }
    .s-new { opacity: 0; animation: s-new 9s infinite both; }
    .s1 { animation-delay: 0s; }
    .s2 { animation-delay: .3s; }
    .s3 { animation-delay: .6s; }
    .s4 { animation-delay: .9s; }
    .s5 { animation-delay: 1.2s; }
    .s6 { animation-delay: 1.5s; }
    @keyframes s-read { 0%, 2% { opacity: .15; } 8%, 70% { opacity: .6; } 85%, 100% { opacity: .15; } }
    @keyframes s-new { 0%, 24% { opacity: 0; } 34%, 82% { opacity: 1; } 92%, 100% { opacity: 0; } }
    @media (prefers-reduced-motion: reduce) { * { animation: none !important; } .s-new { opacity: 1; } }
  </style>
  <defs>
    <symbol id="art-can" viewBox="0 0 30 36" overflow="visible">
      <path d="M2 8V28A13 5 0 0 0 28 28V8" />
      <ellipse cx="15" cy="8" rx="13" ry="5" />
      <path d="M2 11.5A13 5 0 0 0 28 11.5" fill="none" opacity=".5" />
      <ellipse cx="15" cy="8" rx="6" ry="2.3" fill="none" opacity=".5" />
    </symbol>
  </defs>
  <rect class="bg" x="-9.5" y="-9.5" width="259" height="129" rx="8" />

  <path d="M14 8H56L70 22V102H14Z" />
  <path d="M56 8V22H70" fill="none" />
  <text class="art-start" x="20" y="19">sheet</text>
  <rect class="s-line s1" x="22" y="32" width="34" height="2" />
  <rect class="s-line s2" x="28" y="42" width="30" height="2" />
  <rect class="s-line s3" x="28" y="52" width="22" height="2" />
  <rect class="s-line s4" x="22" y="62" width="38" height="2" />
  <rect class="s-line s5" x="28" y="72" width="26" height="2" />
  <rect class="s-line s6" x="28" y="82" width="32" height="2" />
  <text x="91" y="48">up</text>
  <path class="art-dim" d="M80 55H102M98 52L102 55L98 58" />
  <rect class="art-frame" x="110" y="14" width="60" height="82" />
  <rect class="art-frame" x="180" y="14" width="58" height="82" />
  <use class="s-new s1" href="#art-can" xlink:href="#art-can" x="114" y="20" width="24" height="29" />
  <use class="s-new s2" href="#art-can" xlink:href="#art-can" x="142" y="20" width="24" height="29" />
  <use class="s-new s3" href="#art-can" xlink:href="#art-can" x="114" y="62" width="24" height="29" />
  <use class="s-new s4" href="#art-can" xlink:href="#art-can" x="184" y="20" width="24" height="29" />
  <use class="s-new s5" href="#art-can" xlink:href="#art-can" x="184" y="62" width="24" height="29" />
  <use class="s-new s6" href="#art-can" xlink:href="#art-can" x="212" y="62" width="24" height="29" />
</svg>
